<svg width="629" height="26" viewBox="0 0 629 26" fill="none" xmlns="http://www.w3.org/2000/svg">
<path d="M12.144 2.272V4.048H7.584V19H5.4V4.048H0.816V2.272H12.144ZM26.8324 11.92C26.8324 12.336 26.8084 12.776 26.7604 13.24H16.2484C16.3284 14.536 16.7684 15.552 17.5684 16.288C18.3844 17.008 19.3684 17.368 20.5204 17.368C21.4644 17.368 22.2484 17.152 22.8724 16.72C23.5124 16.272 23.9604 15.68 24.2164 14.944H26.5684C26.2164 16.208 25.5124 17.24 24.4564 18.04C23.4004 18.824 22.0884 19.216 20.5204 19.216C19.2724 19.216 18.1524 18.936 17.1604 18.376C16.1844 17.816 15.4164 17.024 14.8564 16C14.2964 14.96 14.0164 13.76 14.0164 12.4C14.0164 11.04 14.2884 9.848 14.8324 8.824C15.3764 7.8 16.1364 7.016 17.1124 6.472C18.1044 5.912 19.2404 5.632 20.5204 5.632C21.7684 5.632 22.8724 5.904 23.8324 6.448C24.7924 6.992 25.5284 7.744 26.0404 8.704C26.5684 9.648 26.8324 10.72 26.8324 11.92ZM24.5764 11.464C24.5764 10.632 24.3924 9.92 24.0244 9.328C23.6564 8.72 23.1524 8.264 22.5124 7.96C21.8884 7.64 21.1924 7.48 20.4244 7.48C19.3204 7.48 18.3764 7.832 17.5924 8.536C16.8244 9.24 16.3844 10.216 16.2724 11.464H24.5764ZM31.8992 7.984C32.2832 7.232 32.8272 6.648 33.5312 6.232C34.2512 5.816 35.1232 5.608 36.1472 5.608V7.864H35.5712C33.1232 7.864 31.8992 9.192 31.8992 11.848V19H29.7152V5.848H31.8992V7.984ZM54.4843 5.608C55.5083 5.608 56.4203 5.824 57.2203 6.256C58.0203 6.672 58.6523 7.304 59.1163 8.152C59.5803 9 59.8123 10.032 59.8123 11.248V19H57.6523V11.56C57.6523 10.248 57.3243 9.248 56.6683 8.56C56.0283 7.856 55.1563 7.504 54.0523 7.504C52.9163 7.504 52.0123 7.872 51.3403 8.608C50.6683 9.328 50.3323 10.376 50.3323 11.752V19H48.1723V11.56C48.1723 10.248 47.8443 9.248 47.1883 8.56C46.5483 7.856 45.6763 7.504 44.5723 7.504C43.4363 7.504 42.5323 7.872 41.8603 8.608C41.1883 9.328 40.8523 10.376 40.8523 11.752V19H38.6683V5.848H40.8523V7.744C41.2843 7.056 41.8603 6.528 42.5803 6.16C43.3163 5.792 44.1243 5.608 45.0043 5.608C46.1083 5.608 47.0843 5.856 47.9323 6.352C48.7803 6.848 49.4123 7.576 49.8283 8.536C50.1963 7.608 50.8043 6.888 51.6523 6.376C52.5003 5.864 53.4443 5.608 54.4843 5.608ZM68.0509 19.216C67.0429 19.216 66.1389 19.048 65.3389 18.712C64.5389 18.36 63.9069 17.88 63.4429 17.272C62.9789 16.648 62.7229 15.936 62.6749 15.136H64.9309C64.9949 15.792 65.2989 16.328 65.8429 16.744C66.4029 17.16 67.1309 17.368 68.0269 17.368C68.8589 17.368 69.5149 17.184 69.9949 16.816C70.4749 16.448 70.7149 15.984 70.7149 15.424C70.7149 14.848 70.4589 14.424 69.9469 14.152C69.4349 13.864 68.6429 13.584 67.5709 13.312C66.5949 13.056 65.7949 12.8 65.1709 12.544C64.5629 12.272 64.0349 11.88 63.5869 11.368C63.1549 10.84 62.9389 10.152 62.9389 9.304C62.9389 8.632 63.1389 8.016 63.5389 7.456C63.9389 6.896 64.5069 6.456 65.2429 6.136C65.9789 5.8 66.8189 5.632 67.7629 5.632C69.2189 5.632 70.3949 6 71.2909 6.736C72.1869 7.472 72.6669 8.48 72.7309 9.76H70.5469C70.4989 9.072 70.2189 8.52 69.7069 8.104C69.2109 7.688 68.5389 7.48 67.6909 7.48C66.9069 7.48 66.2829 7.648 65.8189 7.984C65.3549 8.32 65.1229 8.76 65.1229 9.304C65.1229 9.736 65.2589 10.096 65.5309 10.384C65.8189 10.656 66.1709 10.88 66.5869 11.056C67.0189 11.216 67.6109 11.4 68.3629 11.608C69.3069 11.864 70.0749 12.12 70.6669 12.376C71.2589 12.616 71.7629 12.984 72.1789 13.48C72.6109 13.976 72.8349 14.624 72.8509 15.424C72.8509 16.144 72.6509 16.792 72.2509 17.368C71.8509 17.944 71.2829 18.4 70.5469 18.736C69.8269 19.056 68.9949 19.216 68.0509 19.216ZM81.5164 12.376C81.5164 11.032 81.7884 9.856 82.3324 8.848C82.8764 7.824 83.6204 7.032 84.5644 6.472C85.5244 5.912 86.5884 5.632 87.7564 5.632C88.9084 5.632 89.9084 5.88 90.7564 6.376C91.6044 6.872 92.2364 7.496 92.6524 8.248V5.848H94.8604V19H92.6524V16.552C92.2204 17.32 91.5724 17.96 90.7084 18.472C89.8604 18.968 88.8684 19.216 87.7324 19.216C86.5644 19.216 85.5084 18.928 84.5644 18.352C83.6204 17.776 82.8764 16.968 82.3324 15.928C81.7884 14.888 81.5164 13.704 81.5164 12.376ZM92.6524 12.4C92.6524 11.408 92.4524 10.544 92.0524 9.808C91.6524 9.072 91.1084 8.512 90.4204 8.128C89.7484 7.728 89.0044 7.528 88.1884 7.528C87.3724 7.528 86.6284 7.72 85.9564 8.104C85.2844 8.488 84.7484 9.048 84.3484 9.784C83.9484 10.52 83.7484 11.384 83.7484 12.376C83.7484 13.384 83.9484 14.264 84.3484 15.016C84.7484 15.752 85.2844 16.32 85.9564 16.72C86.6284 17.104 87.3724 17.296 88.1884 17.296C89.0044 17.296 89.7484 17.104 90.4204 16.72C91.1084 16.32 91.6524 15.752 92.0524 15.016C92.4524 14.264 92.6524 13.392 92.6524 12.4ZM104.959 5.608C106.559 5.608 107.855 6.096 108.847 7.072C109.839 8.032 110.335 9.424 110.335 11.248V19H108.175V11.56C108.175 10.248 107.847 9.248 107.191 8.56C106.535 7.856 105.639 7.504 104.503 7.504C103.351 7.504 102.431 7.864 101.743 8.584C101.071 9.304 100.735 10.352 100.735 11.728V19H98.5511V5.848H100.735V7.72C101.167 7.048 101.751 6.528 102.487 6.16C103.239 5.792 104.063 5.608 104.959 5.608ZM113.087 12.376C113.087 11.032 113.359 9.856 113.903 8.848C114.447 7.824 115.191 7.032 116.135 6.472C117.095 5.912 118.167 5.632 119.351 5.632C120.375 5.632 121.327 5.872 122.207 6.352C123.087 6.816 123.759 7.432 124.223 8.2V1.24H126.431V19H124.223V16.528C123.791 17.312 123.151 17.96 122.303 18.472C121.455 18.968 120.463 19.216 119.327 19.216C118.159 19.216 117.095 18.928 116.135 18.352C115.191 17.776 114.447 16.968 113.903 15.928C113.359 14.888 113.087 13.704 113.087 12.376ZM124.223 12.4C124.223 11.408 124.023 10.544 123.623 9.808C123.223 9.072 122.679 8.512 121.991 8.128C121.319 7.728 120.575 7.528 119.759 7.528C118.943 7.528 118.199 7.72 117.527 8.104C116.855 8.488 116.319 9.048 115.919 9.784C115.519 10.52 115.319 11.384 115.319 12.376C115.319 13.384 115.519 14.264 115.919 15.016C116.319 15.752 116.855 16.32 117.527 16.72C118.199 17.104 118.943 17.296 119.759 17.296C120.575 17.296 121.319 17.104 121.991 16.72C122.679 16.32 123.223 15.752 123.623 15.016C124.023 14.264 124.223 13.392 124.223 12.4ZM135.704 10.624C135.704 8.992 136.072 7.528 136.808 6.232C137.544 4.92 138.544 3.896 139.808 3.16C141.088 2.424 142.504 2.056 144.056 2.056C145.88 2.056 147.472 2.496 148.832 3.376C150.192 4.256 151.184 5.504 151.808 7.12H149.192C148.728 6.112 148.056 5.336 147.176 4.792C146.312 4.248 145.272 3.976 144.056 3.976C142.888 3.976 141.84 4.248 140.912 4.792C139.984 5.336 139.256 6.112 138.728 7.12C138.2 8.112 137.936 9.28 137.936 10.624C137.936 11.952 138.2 13.12 138.728 14.128C139.256 15.12 139.984 15.888 140.912 16.432C141.84 16.976 142.888 17.248 144.056 17.248C145.272 17.248 146.312 16.984 147.176 16.456C148.056 15.912 148.728 15.136 149.192 14.128H151.808C151.184 15.728 150.192 16.968 148.832 17.848C147.472 18.712 145.88 19.144 144.056 19.144C142.504 19.144 141.088 18.784 139.808 18.064C138.544 17.328 137.544 16.312 136.808 15.016C136.072 13.72 135.704 12.256 135.704 10.624ZM160.795 19.216C159.563 19.216 158.443 18.936 157.435 18.376C156.443 17.816 155.659 17.024 155.083 16C154.523 14.96 154.243 13.76 154.243 12.4C154.243 11.056 154.531 9.872 155.107 8.848C155.699 7.808 156.499 7.016 157.507 6.472C158.515 5.912 159.643 5.632 160.891 5.632C162.139 5.632 163.267 5.912 164.275 6.472C165.283 7.016 166.075 7.8 166.651 8.824C167.243 9.848 167.539 11.04 167.539 12.4C167.539 13.76 167.235 14.96 166.627 16C166.035 17.024 165.227 17.816 164.203 18.376C163.179 18.936 162.043 19.216 160.795 19.216ZM160.795 17.296C161.579 17.296 162.315 17.112 163.003 16.744C163.691 16.376 164.243 15.824 164.659 15.088C165.091 14.352 165.307 13.456 165.307 12.4C165.307 11.344 165.099 10.448 164.683 9.712C164.267 8.976 163.723 8.432 163.051 8.08C162.379 7.712 161.651 7.528 160.867 7.528C160.067 7.528 159.331 7.712 158.659 8.08C158.003 8.432 157.475 8.976 157.075 9.712C156.675 10.448 156.475 11.344 156.475 12.4C156.475 13.472 156.667 14.376 157.051 15.112C157.451 15.848 157.979 16.4 158.635 16.768C159.291 17.12 160.011 17.296 160.795 17.296ZM176.819 5.608C178.419 5.608 179.715 6.096 180.707 7.072C181.699 8.032 182.195 9.424 182.195 11.248V19H180.035V11.56C180.035 10.248 179.707 9.248 179.051 8.56C178.395 7.856 177.499 7.504 176.363 7.504C175.211 7.504 174.291 7.864 173.603 8.584C172.931 9.304 172.595 10.352 172.595 11.728V19H170.411V5.848H172.595V7.72C173.027 7.048 173.611 6.528 174.347 6.16C175.099 5.792 175.923 5.608 176.819 5.608ZM184.946 12.376C184.946 11.032 185.218 9.856 185.762 8.848C186.306 7.824 187.05 7.032 187.994 6.472C188.954 5.912 190.026 5.632 191.21 5.632C192.234 5.632 193.186 5.872 194.066 6.352C194.946 6.816 195.618 7.432 196.082 8.2V1.24H198.29V19H196.082V16.528C195.65 17.312 195.01 17.96 194.162 18.472C193.314 18.968 192.322 19.216 191.186 19.216C190.018 19.216 188.954 18.928 187.994 18.352C187.05 17.776 186.306 16.968 185.762 15.928C185.218 14.888 184.946 13.704 184.946 12.376ZM196.082 12.4C196.082 11.408 195.882 10.544 195.482 9.808C195.082 9.072 194.538 8.512 193.85 8.128C193.178 7.728 192.434 7.528 191.618 7.528C190.802 7.528 190.058 7.72 189.386 8.104C188.714 8.488 188.178 9.048 187.778 9.784C187.378 10.52 187.178 11.384 187.178 12.376C187.178 13.384 187.378 14.264 187.778 15.016C188.178 15.752 188.714 16.32 189.386 16.72C190.058 17.104 190.802 17.296 191.618 17.296C192.434 17.296 193.178 17.104 193.85 16.72C194.538 16.32 195.082 15.752 195.482 15.016C195.882 14.264 196.082 13.392 196.082 12.4ZM203.109 3.712C202.693 3.712 202.341 3.568 202.053 3.28C201.765 2.992 201.621 2.64 201.621 2.224C201.621 1.808 201.765 1.456 202.053 1.168C202.341 0.879999 202.693 0.735999 203.109 0.735999C203.509 0.735999 203.845 0.879999 204.117 1.168C204.405 1.456 204.549 1.808 204.549 2.224C204.549 2.64 204.405 2.992 204.117 3.28C203.845 3.568 203.509 3.712 203.109 3.712ZM204.165 5.848V19H201.981V5.848H204.165ZM210.551 7.648V15.4C210.551 16.04 210.687 16.496 210.959 16.768C211.231 17.024 211.703 17.152 212.375 17.152H213.983V19H212.015C210.799 19 209.887 18.72 209.279 18.16C208.671 17.6 208.367 16.68 208.367 15.4V7.648H206.663V5.848H208.367V2.536H210.551V5.848H213.983V7.648H210.551ZM217.757 3.712C217.341 3.712 216.989 3.568 216.701 3.28C216.413 2.992 216.269 2.64 216.269 2.224C216.269 1.808 216.413 1.456 216.701 1.168C216.989 0.879999 217.341 0.735999 217.757 0.735999C218.157 0.735999 218.493 0.879999 218.765 1.168C219.053 1.456 219.197 1.808 219.197 2.224C219.197 2.64 219.053 2.992 218.765 3.28C218.493 3.568 218.157 3.712 217.757 3.712ZM218.813 5.848V19H216.629V5.848H218.813ZM228.272 19.216C227.04 19.216 225.92 18.936 224.912 18.376C223.92 17.816 223.136 17.024 222.56 16C222 14.96 221.72 13.76 221.72 12.4C221.72 11.056 222.008 9.872 222.584 8.848C223.176 7.808 223.976 7.016 224.984 6.472C225.992 5.912 227.12 5.632 228.368 5.632C229.616 5.632 230.744 5.912 231.752 6.472C232.76 7.016 233.552 7.8 234.128 8.824C234.72 9.848 235.016 11.04 235.016 12.4C235.016 13.76 234.712 14.96 234.104 16C233.512 17.024 232.704 17.816 231.68 18.376C230.656 18.936 229.52 19.216 228.272 19.216ZM228.272 17.296C229.056 17.296 229.792 17.112 230.48 16.744C231.168 16.376 231.72 15.824 232.136 15.088C232.568 14.352 232.784 13.456 232.784 12.4C232.784 11.344 232.576 10.448 232.16 9.712C231.744 8.976 231.2 8.432 230.528 8.08C229.856 7.712 229.128 7.528 228.344 7.528C227.544 7.528 226.808 7.712 226.136 8.08C225.48 8.432 224.952 8.976 224.552 9.712C224.152 10.448 223.952 11.344 223.952 12.4C223.952 13.472 224.144 14.376 224.528 15.112C224.928 15.848 225.456 16.4 226.112 16.768C226.768 17.12 227.488 17.296 228.272 17.296ZM244.295 5.608C245.895 5.608 247.191 6.096 248.183 7.072C249.175 8.032 249.671 9.424 249.671 11.248V19H247.511V11.56C247.511 10.248 247.183 9.248 246.527 8.56C245.871 7.856 244.975 7.504 243.839 7.504C242.687 7.504 241.767 7.864 241.079 8.584C240.407 9.304 240.071 10.352 240.071 11.728V19H237.887V5.848H240.071V7.72C240.503 7.048 241.087 6.528 241.823 6.16C242.575 5.792 243.399 5.608 244.295 5.608ZM257.895 19.216C256.887 19.216 255.983 19.048 255.183 18.712C254.383 18.36 253.751 17.88 253.287 17.272C252.823 16.648 252.567 15.936 252.519 15.136H254.775C254.839 15.792 255.143 16.328 255.687 16.744C256.247 17.16 256.975 17.368 257.871 17.368C258.703 17.368 259.359 17.184 259.839 16.816C260.319 16.448 260.559 15.984 260.559 15.424C260.559 14.848 260.303 14.424 259.791 14.152C259.279 13.864 258.487 13.584 257.415 13.312C256.439 13.056 255.639 12.8 255.015 12.544C254.407 12.272 253.879 11.88 253.431 11.368C252.999 10.84 252.783 10.152 252.783 9.304C252.783 8.632 252.983 8.016 253.383 7.456C253.783 6.896 254.351 6.456 255.087 6.136C255.823 5.8 256.663 5.632 257.607 5.632C259.063 5.632 260.239 6 261.135 6.736C262.031 7.472 262.511 8.48 262.575 9.76H260.391C260.343 9.072 260.063 8.52 259.551 8.104C259.055 7.688 258.383 7.48 257.535 7.48C256.751 7.48 256.127 7.648 255.663 7.984C255.199 8.32 254.967 8.76 254.967 9.304C254.967 9.736 255.103 10.096 255.375 10.384C255.663 10.656 256.015 10.88 256.431 11.056C256.863 11.216 257.455 11.4 258.207 11.608C259.151 11.864 259.919 12.12 260.511 12.376C261.103 12.616 261.607 12.984 262.023 13.48C262.455 13.976 262.679 14.624 262.695 15.424C262.695 16.144 262.495 16.792 262.095 17.368C261.695 17.944 261.127 18.4 260.391 18.736C259.671 19.056 258.839 19.216 257.895 19.216ZM275.248 13.936C274.432 13.936 273.736 13.656 273.16 13.096C272.6 12.52 272.32 11.824 272.32 11.008C272.32 10.176 272.6 9.48 273.16 8.92C273.736 8.344 274.432 8.056 275.248 8.056C276.08 8.056 276.784 8.344 277.36 8.92C277.936 9.48 278.224 10.176 278.224 11.008C278.224 11.824 277.936 12.52 277.36 13.096C276.784 13.656 276.08 13.936 275.248 13.936ZM299.649 7.168C299.649 8.56 299.169 9.72 298.209 10.648C297.265 11.56 295.817 12.016 293.865 12.016H290.649V19H288.465V2.272H293.865C295.753 2.272 297.185 2.728 298.161 3.64C299.153 4.552 299.649 5.728 299.649 7.168ZM293.865 10.216C295.081 10.216 295.977 9.952 296.553 9.424C297.129 8.896 297.417 8.144 297.417 7.168C297.417 5.104 296.233 4.072 293.865 4.072H290.649V10.216H293.865ZM304.548 7.984C304.932 7.232 305.476 6.648 306.18 6.232C306.9 5.816 307.772 5.608 308.796 5.608V7.864H308.22C305.772 7.864 304.548 9.192 304.548 11.848V19H302.364V5.848H304.548V7.984ZM312.445 3.712C312.029 3.712 311.677 3.568 311.389 3.28C311.101 2.992 310.957 2.64 310.957 2.224C310.957 1.808 311.101 1.456 311.389 1.168C311.677 0.879999 312.029 0.735999 312.445 0.735999C312.845 0.735999 313.181 0.879999 313.453 1.168C313.741 1.456 313.885 1.808 313.885 2.224C313.885 2.64 313.741 2.992 313.453 3.28C313.181 3.568 312.845 3.712 312.445 3.712ZM313.501 5.848V19H311.317V5.848H313.501ZM322.119 16.984L326.199 5.848H328.527L323.367 19H320.823L315.663 5.848H318.015L322.119 16.984ZM329.86 12.376C329.86 11.032 330.132 9.856 330.676 8.848C331.22 7.824 331.964 7.032 332.908 6.472C333.868 5.912 334.932 5.632 336.1 5.632C337.252 5.632 338.252 5.88 339.1 6.376C339.948 6.872 340.58 7.496 340.996 8.248V5.848H343.204V19H340.996V16.552C340.564 17.32 339.916 17.96 339.052 18.472C338.204 18.968 337.212 19.216 336.076 19.216C334.908 19.216 333.852 18.928 332.908 18.352C331.964 17.776 331.22 16.968 330.676 15.928C330.132 14.888 329.86 13.704 329.86 12.376ZM340.996 12.4C340.996 11.408 340.796 10.544 340.396 9.808C339.996 9.072 339.452 8.512 338.764 8.128C338.092 7.728 337.348 7.528 336.532 7.528C335.716 7.528 334.972 7.72 334.3 8.104C333.628 8.488 333.092 9.048 332.692 9.784C332.292 10.52 332.092 11.384 332.092 12.376C332.092 13.384 332.292 14.264 332.692 15.016C333.092 15.752 333.628 16.32 334.3 16.72C334.972 17.104 335.716 17.296 336.532 17.296C337.348 17.296 338.092 17.104 338.764 16.72C339.452 16.32 339.996 15.752 340.396 15.016C340.796 14.264 340.996 13.392 340.996 12.4ZM346.079 12.4C346.079 11.04 346.351 9.856 346.895 8.848C347.439 7.824 348.191 7.032 349.151 6.472C350.127 5.912 351.239 5.632 352.487 5.632C354.103 5.632 355.431 6.024 356.471 6.808C357.527 7.592 358.223 8.68 358.559 10.072H356.207C355.983 9.272 355.543 8.64 354.887 8.176C354.247 7.712 353.447 7.48 352.487 7.48C351.239 7.48 350.231 7.912 349.463 8.776C348.695 9.624 348.311 10.832 348.311 12.4C348.311 13.984 348.695 15.208 349.463 16.072C350.231 16.936 351.239 17.368 352.487 17.368C353.447 17.368 354.247 17.144 354.887 16.696C355.527 16.248 355.967 15.608 356.207 14.776H358.559C358.207 16.12 357.503 17.2 356.447 18.016C355.391 18.816 354.071 19.216 352.487 19.216C351.239 19.216 350.127 18.936 349.151 18.376C348.191 17.816 347.439 17.024 346.895 16C346.351 14.976 346.079 13.776 346.079 12.4ZM372.801 5.848L364.881 25.192H362.625L365.217 18.856L359.913 5.848H362.337L366.465 16.504L370.545 5.848H372.801ZM392.579 7.168C392.579 8.56 392.099 9.72 391.139 10.648C390.195 11.56 388.747 12.016 386.795 12.016H383.579V19H381.395V2.272H386.795C388.683 2.272 390.115 2.728 391.091 3.64C392.083 4.552 392.579 5.728 392.579 7.168ZM386.795 10.216C388.011 10.216 388.907 9.952 389.483 9.424C390.059 8.896 390.347 8.144 390.347 7.168C390.347 5.104 389.163 4.072 386.795 4.072H383.579V10.216H386.795ZM401.029 19.216C399.797 19.216 398.677 18.936 397.669 18.376C396.677 17.816 395.893 17.024 395.317 16C394.757 14.96 394.477 13.76 394.477 12.4C394.477 11.056 394.765 9.872 395.341 8.848C395.933 7.808 396.733 7.016 397.741 6.472C398.749 5.912 399.877 5.632 401.125 5.632C402.373 5.632 403.501 5.912 404.509 6.472C405.517 7.016 406.309 7.8 406.885 8.824C407.477 9.848 407.773 11.04 407.773 12.4C407.773 13.76 407.469 14.96 406.861 16C406.269 17.024 405.461 17.816 404.437 18.376C403.413 18.936 402.277 19.216 401.029 19.216ZM401.029 17.296C401.813 17.296 402.549 17.112 403.237 16.744C403.925 16.376 404.477 15.824 404.893 15.088C405.325 14.352 405.541 13.456 405.541 12.4C405.541 11.344 405.333 10.448 404.917 9.712C404.501 8.976 403.957 8.432 403.285 8.08C402.613 7.712 401.885 7.528 401.101 7.528C400.301 7.528 399.565 7.712 398.893 8.08C398.237 8.432 397.709 8.976 397.309 9.712C396.909 10.448 396.709 11.344 396.709 12.4C396.709 13.472 396.901 14.376 397.285 15.112C397.685 15.848 398.213 16.4 398.869 16.768C399.525 17.12 400.245 17.296 401.029 17.296ZM412.829 1.24V19H410.645V1.24H412.829ZM417.679 3.712C417.263 3.712 416.911 3.568 416.623 3.28C416.335 2.992 416.191 2.64 416.191 2.224C416.191 1.808 416.335 1.456 416.623 1.168C416.911 0.879999 417.263 0.735999 417.679 0.735999C418.079 0.735999 418.415 0.879999 418.687 1.168C418.975 1.456 419.119 1.808 419.119 2.224C419.119 2.64 418.975 2.992 418.687 3.28C418.415 3.568 418.079 3.712 417.679 3.712ZM418.735 5.848V19H416.551V5.848H418.735ZM421.641 12.4C421.641 11.04 421.913 9.856 422.457 8.848C423.001 7.824 423.753 7.032 424.713 6.472C425.689 5.912 426.801 5.632 428.049 5.632C429.665 5.632 430.993 6.024 432.033 6.808C433.089 7.592 433.785 8.68 434.121 10.072H431.769C431.545 9.272 431.105 8.64 430.449 8.176C429.809 7.712 429.009 7.48 428.049 7.48C426.801 7.48 425.793 7.912 425.025 8.776C424.257 9.624 423.873 10.832 423.873 12.4C423.873 13.984 424.257 15.208 425.025 16.072C425.793 16.936 426.801 17.368 428.049 17.368C429.009 17.368 429.809 17.144 430.449 16.696C431.089 16.248 431.529 15.608 431.769 14.776H434.121C433.769 16.12 433.065 17.2 432.009 18.016C430.953 18.816 429.633 19.216 428.049 19.216C426.801 19.216 425.689 18.936 424.713 18.376C423.753 17.816 423.001 17.024 422.457 16C421.913 14.976 421.641 13.776 421.641 12.4ZM448.364 5.848L440.444 25.192H438.188L440.78 18.856L435.476 5.848H437.9L442.028 16.504L446.108 5.848H448.364ZM460.029 13.936C459.213 13.936 458.517 13.656 457.941 13.096C457.381 12.52 457.101 11.824 457.101 11.008C457.101 10.176 457.381 9.48 457.941 8.92C458.517 8.344 459.213 8.056 460.029 8.056C460.861 8.056 461.565 8.344 462.141 8.92C462.717 9.48 463.005 10.176 463.005 11.008C463.005 11.824 462.717 12.52 462.141 13.096C461.565 13.656 460.861 13.936 460.029 13.936ZM472.43 10.624C472.43 8.992 472.798 7.528 473.534 6.232C474.27 4.92 475.27 3.896 476.534 3.16C477.814 2.424 479.23 2.056 480.782 2.056C482.606 2.056 484.198 2.496 485.558 3.376C486.918 4.256 487.91 5.504 488.534 7.12H485.918C485.454 6.112 484.782 5.336 483.902 4.792C483.038 4.248 481.998 3.976 480.782 3.976C479.614 3.976 478.566 4.248 477.638 4.792C476.71 5.336 475.982 6.112 475.454 7.12C474.926 8.112 474.662 9.28 474.662 10.624C474.662 11.952 474.926 13.12 475.454 14.128C475.982 15.12 476.71 15.888 477.638 16.432C478.566 16.976 479.614 17.248 480.782 17.248C481.998 17.248 483.038 16.984 483.902 16.456C484.782 15.912 485.454 15.136 485.918 14.128H488.534C487.91 15.728 486.918 16.968 485.558 17.848C484.198 18.712 482.606 19.144 480.782 19.144C479.23 19.144 477.814 18.784 476.534 18.064C475.27 17.328 474.27 16.312 473.534 15.016C472.798 13.72 472.43 12.256 472.43 10.624ZM497.522 19.216C496.29 19.216 495.17 18.936 494.162 18.376C493.17 17.816 492.386 17.024 491.81 16C491.25 14.96 490.97 13.76 490.97 12.4C490.97 11.056 491.258 9.872 491.834 8.848C492.426 7.808 493.226 7.016 494.234 6.472C495.242 5.912 496.37 5.632 497.618 5.632C498.866 5.632 499.994 5.912 501.002 6.472C502.01 7.016 502.802 7.8 503.378 8.824C503.97 9.848 504.266 11.04 504.266 12.4C504.266 13.76 503.962 14.96 503.354 16C502.762 17.024 501.954 17.816 500.93 18.376C499.906 18.936 498.77 19.216 497.522 19.216ZM497.522 17.296C498.306 17.296 499.042 17.112 499.73 16.744C500.418 16.376 500.97 15.824 501.386 15.088C501.818 14.352 502.034 13.456 502.034 12.4C502.034 11.344 501.826 10.448 501.41 9.712C500.994 8.976 500.45 8.432 499.778 8.08C499.106 7.712 498.378 7.528 497.594 7.528C496.794 7.528 496.058 7.712 495.386 8.08C494.73 8.432 494.202 8.976 493.802 9.712C493.402 10.448 493.202 11.344 493.202 12.4C493.202 13.472 493.394 14.376 493.778 15.112C494.178 15.848 494.706 16.4 495.362 16.768C496.018 17.12 496.738 17.296 497.522 17.296ZM512.873 19.216C511.641 19.216 510.521 18.936 509.513 18.376C508.521 17.816 507.737 17.024 507.161 16C506.601 14.96 506.321 13.76 506.321 12.4C506.321 11.056 506.609 9.872 507.185 8.848C507.777 7.808 508.577 7.016 509.585 6.472C510.593 5.912 511.721 5.632 512.969 5.632C514.217 5.632 515.345 5.912 516.353 6.472C517.361 7.016 518.153 7.8 518.729 8.824C519.321 9.848 519.617 11.04 519.617 12.4C519.617 13.76 519.313 14.96 518.705 16C518.113 17.024 517.305 17.816 516.281 18.376C515.257 18.936 514.121 19.216 512.873 19.216ZM512.873 17.296C513.657 17.296 514.393 17.112 515.081 16.744C515.769 16.376 516.321 15.824 516.737 15.088C517.169 14.352 517.385 13.456 517.385 12.4C517.385 11.344 517.177 10.448 516.761 9.712C516.345 8.976 515.801 8.432 515.129 8.08C514.457 7.712 513.729 7.528 512.945 7.528C512.145 7.528 511.409 7.712 510.737 8.08C510.081 8.432 509.553 8.976 509.153 9.712C508.753 10.448 508.553 11.344 508.553 12.4C508.553 13.472 508.745 14.376 509.129 15.112C509.529 15.848 510.057 16.4 510.713 16.768C511.369 17.12 512.089 17.296 512.873 17.296ZM529.833 19L524.673 13.192V19H522.489V1.24H524.673V11.68L529.737 5.848H532.785L526.593 12.4L532.809 19H529.833ZM535.968 3.712C535.552 3.712 535.2 3.568 534.912 3.28C534.624 2.992 534.48 2.64 534.48 2.224C534.48 1.808 534.624 1.456 534.912 1.168C535.2 0.879999 535.552 0.735999 535.968 0.735999C536.368 0.735999 536.704 0.879999 536.976 1.168C537.264 1.456 537.408 1.808 537.408 2.224C537.408 2.64 537.264 2.992 536.976 3.28C536.704 3.568 536.368 3.712 535.968 3.712ZM537.024 5.848V19H534.84V5.848H537.024ZM552.746 11.92C552.746 12.336 552.722 12.776 552.674 13.24H542.162C542.242 14.536 542.682 15.552 543.482 16.288C544.298 17.008 545.282 17.368 546.434 17.368C547.378 17.368 548.162 17.152 548.786 16.72C549.426 16.272 549.874 15.68 550.13 14.944H552.482C552.13 16.208 551.426 17.24 550.37 18.04C549.314 18.824 548.002 19.216 546.434 19.216C545.186 19.216 544.066 18.936 543.074 18.376C542.098 17.816 541.33 17.024 540.77 16C540.21 14.96 539.93 13.76 539.93 12.4C539.93 11.04 540.202 9.848 540.746 8.824C541.29 7.8 542.05 7.016 543.026 6.472C544.018 5.912 545.154 5.632 546.434 5.632C547.682 5.632 548.786 5.904 549.746 6.448C550.706 6.992 551.442 7.744 551.954 8.704C552.482 9.648 552.746 10.72 552.746 11.92ZM550.49 11.464C550.49 10.632 550.306 9.92 549.938 9.328C549.57 8.72 549.066 8.264 548.426 7.96C547.802 7.64 547.106 7.48 546.338 7.48C545.234 7.48 544.29 7.832 543.506 8.536C542.738 9.24 542.298 10.216 542.186 11.464H550.49ZM573.212 7.168C573.212 8.56 572.732 9.72 571.772 10.648C570.828 11.56 569.38 12.016 567.428 12.016H564.212V19H562.028V2.272H567.428C569.316 2.272 570.748 2.728 571.724 3.64C572.716 4.552 573.212 5.728 573.212 7.168ZM567.428 10.216C568.644 10.216 569.54 9.952 570.116 9.424C570.692 8.896 570.98 8.144 570.98 7.168C570.98 5.104 569.796 4.072 567.428 4.072H564.212V10.216H567.428ZM581.662 19.216C580.43 19.216 579.31 18.936 578.302 18.376C577.31 17.816 576.526 17.024 575.95 16C575.39 14.96 575.11 13.76 575.11 12.4C575.11 11.056 575.398 9.872 575.974 8.848C576.566 7.808 577.366 7.016 578.374 6.472C579.382 5.912 580.51 5.632 581.758 5.632C583.006 5.632 584.134 5.912 585.142 6.472C586.15 7.016 586.942 7.8 587.518 8.824C588.11 9.848 588.406 11.04 588.406 12.4C588.406 13.76 588.102 14.96 587.494 16C586.902 17.024 586.094 17.816 585.07 18.376C584.046 18.936 582.91 19.216 581.662 19.216ZM581.662 17.296C582.446 17.296 583.182 17.112 583.87 16.744C584.558 16.376 585.11 15.824 585.526 15.088C585.958 14.352 586.174 13.456 586.174 12.4C586.174 11.344 585.966 10.448 585.55 9.712C585.134 8.976 584.59 8.432 583.918 8.08C583.246 7.712 582.518 7.528 581.734 7.528C580.934 7.528 580.198 7.712 579.526 8.08C578.87 8.432 578.342 8.976 577.942 9.712C577.542 10.448 577.342 11.344 577.342 12.4C577.342 13.472 577.534 14.376 577.918 15.112C578.318 15.848 578.846 16.4 579.502 16.768C580.158 17.12 580.878 17.296 581.662 17.296ZM593.462 1.24V19H591.278V1.24H593.462ZM598.312 3.712C597.896 3.712 597.544 3.568 597.256 3.28C596.968 2.992 596.824 2.64 596.824 2.224C596.824 1.808 596.968 1.456 597.256 1.168C597.544 0.879999 597.896 0.735999 598.312 0.735999C598.712 0.735999 599.048 0.879999 599.32 1.168C599.608 1.456 599.752 1.808 599.752 2.224C599.752 2.64 599.608 2.992 599.32 3.28C599.048 3.568 598.712 3.712 598.312 3.712ZM599.368 5.848V19H597.184V5.848H599.368ZM602.274 12.4C602.274 11.04 602.546 9.856 603.09 8.848C603.634 7.824 604.386 7.032 605.346 6.472C606.322 5.912 607.434 5.632 608.682 5.632C610.298 5.632 611.626 6.024 612.666 6.808C613.722 7.592 614.418 8.68 614.754 10.072H612.402C612.178 9.272 611.738 8.64 611.082 8.176C610.442 7.712 609.642 7.48 608.682 7.48C607.434 7.48 606.426 7.912 605.658 8.776C604.89 9.624 604.506 10.832 604.506 12.4C604.506 13.984 604.89 15.208 605.658 16.072C606.426 16.936 607.434 17.368 608.682 17.368C609.642 17.368 610.442 17.144 611.082 16.696C611.722 16.248 612.162 15.608 612.402 14.776H614.754C614.402 16.12 613.698 17.2 612.642 18.016C611.586 18.816 610.266 19.216 608.682 19.216C607.434 19.216 606.322 18.936 605.346 18.376C604.386 17.816 603.634 17.024 603.09 16C602.546 14.976 602.274 13.776 602.274 12.4ZM628.996 5.848L621.076 25.192H618.82L621.412 18.856L616.108 5.848H618.532L622.66 16.504L626.74 5.848H628.996Z" fill="#8F95A5"/>
</svg>
